<?xml version="1.0" encoding="utf-8"?>
<!-- Generator: Adobe Illustrator 22.0.1, SVG Export Plug-In . SVG Version: 6.00 Build 0)  -->
<svg version="1.1" xmlns="http://www.w3.org/2000/svg" xmlns:xlink="http://www.w3.org/1999/xlink" x="0px" y="0px"
	 viewBox="0 0 1000 1000" style="enable-background:new 0 0 1000 1000;" xml:space="preserve">
<style type="text/css">
	.st0{fill:#05F9E5;}
	.st1{fill:#FE3245;}
	.st2{fill:#FF0000;}
	.st3{fill:#020202;}
</style>
<g id="White-Blue_R">
	<polygon class="st0" points="620.8,801.5 633,823.2 572.8,883 556.5,866 	"/>
	<polygon class="st0" points="805.2,728.3 818.4,748.5 880.4,686.4 863,669 	"/>
	<polygon class="st0" points="531.8,466.2 587.6,410.9 604.3,427.7 568,465.6 	"/>
	<polygon class="st0" points="500.4,327.2 516.8,344.4 580.1,279.5 547.2,279.5 	"/>
	
		<rect x="748.3" y="147.8" transform="matrix(0.7071 -0.7071 0.7071 0.7071 116.6554 600.3267)" class="st0" width="69.4" height="23.1"/>
	<polygon class="st0" points="234.3,223.3 191.3,266.3 208,282.9 234.2,256.6 	"/>
	<polygon class="st0" points="234.3,612.1 167.3,679.2 183.5,695.5 234,645 	"/>
	<polygon class="st0" points="216.9,895.9 256,856.8 290.7,856.8 234.6,912.9 	"/>
	<path class="st0" d="M817.5,749.6L778.1,789L760,770.8l44.1-44.1l-68.3-111.8l-25.5,23.8l-14.8-22.7c0,0,14.6-9.6,21.7-16.6
		c7.1-7,16.5-13.5,30.9-31.6c14.3-18.1,17.8-25.3,26.1-40.4c8.3-15.1,16.4-27.8,22.4-52.8c6-25,7.7-31,8.6-47.7
		c0.9-16.7,0.6-17.6,0.6-17.6l24.5-22.8c0,0,5.3-59.3-11-99.1c-16.4-39.8-22.8-63-51.7-93.2L714.9,247l-19.6-19.6l52-52
		c0,0-33.2-29.9-67.1-42.3c-34-12.4-50-19.4-73.5-21.1l23.8-23.8h-130L480,108.7l-245.3-0.5v112.3l56.6-56.7l18.4,18.4l-74.9,74.9
		v95.5l22.1-22v132l-22.5,22.5v123.7l33.3-33.3l18.8,18.8l-51.9,51.9v209.7h22.2l62.5-62.5l18.3,18.3l-45.3,45.3h69.1L337,881.4
		h64.3v-65.8l24.5-24.5V635.3h99.8l21.7,36.8l-25.9,23.1l48.8,83.3l24.3-22.9l26.4,43.7l36.3-35.9l18.3,19L633,823.2l19.9,32.2
		h214.3v-25.9L817.5,749.6z M639.8,404.1c-2.8,15.1-12,27.5-21.9,39.5c-9.9,12-34.9,21.8-34.9,21.8h-15.3l-64.8,64.8l-17.5-17.5
		l46.4-46.4H424.4V293.9l14.2-15.6H548l52.3-52.3l17.8,17.8l-35.7,35.7c17.3,2.9,24.1,12.5,38,24.5s17.3,28.1,21,43.8
		C645.1,363.6,642.6,389,639.8,404.1z"/>
</g>
<g id="Red_R">
	<g>
		<polygon class="st1" points="561.3,798.5 573.5,820.1 513.3,879.9 497,863 		"/>
		<polygon class="st1" points="745.7,723.4 758.9,743.5 820.9,681.5 803.4,664 		"/>
		<polygon class="st2" points="544.8,430.1 508.8,467.8 508.5,468.1 507.9,468.1 472.3,468.7 528.1,413.3 		"/>
		<polygon class="st1" points="439,326 455.4,343.1 518.7,278.3 485.8,278.3 		"/>
		
			<rect x="688.8" y="144.7" transform="matrix(0.7071 -0.7071 0.7071 0.7071 101.4018 557.334)" class="st1" width="69.4" height="23.1"/>
		<polygon class="st1" points="174.8,222.1 131.8,265.1 148.4,281.7 174.7,255.4 		"/>
		<polygon class="st1" points="174.8,609.1 107.7,676.1 124,692.4 174.5,641.9 		"/>
		<polygon class="st1" points="157.3,894.7 196.5,855.6 231.2,855.6 175.1,911.6 		"/>
		<path class="st1" d="M757.9,748.4l-39.3,39.3l-18.2-18.2l44.1-44.1l-68.3-111.8l-25.5,23.8L636,614.8c0,0,14.6-9.6,21.7-16.6
			c7.1-7,16.5-13.5,30.8-31.6c14.3-18.1,17.8-25.3,26.2-40.4c8.3-15.1,16.3-27.8,22.4-52.8c6-25,7.7-31,8.6-47.7
			c0.9-16.7,0.6-17.6,0.6-17.6l24.5-22.8c0,0,5.3-59.3-11-99.1s-22.8-63-51.7-93.2l-52.6,52.6l-19.6-19.6l52-52
			c0,0-33.2-29.9-67.1-42.3c-34-12.4-50-19.4-73.5-21.1l23.8-23.8h-130l-20.6,20.6L175.2,107v112.3l56.7-56.7l18.4,18.4L175.3,256
			v95.5l22-22v132l-22.5,22.5v123.7l33.3-33.3l18.8,18.8L175,645.1v209.7h22.2l62.5-62.5l18.3,18.3l-45.2,45.3h69.1l-24.3,24.2h64.3
			v-65.8l24.5-24.5V634.1h99.8l21.8,36.8L461.9,694l48.8,83.3l24.3-22.9l26.4,43.7l36.3-35.9l18.3,19L573.5,822l19.9,32.2h214.3
			v-25.9L757.9,748.4z M580.3,408.4c-2.8,15.1-12,27.5-21.9,39.5s-34.9,21.8-34.9,21.8h-14.7l36-37.7l-16.7-16.8l-55.9,55.4H364.9
			V298.2l14.2-15.6h109.4l52.3-52.3l17.8,17.8l-35.7,35.7c17.3,2.9,24.1,12.5,38,24.5s17.3,28.1,21,43.8S583,393.3,580.3,408.4z"/>
	</g>
</g>
<g id="Black_R">
	<g>
		<polygon class="st3" points="590.4,800.9 602.6,822.5 542.4,882.3 526.1,865.3 		"/>
		<polygon class="st3" points="774.8,727.6 788,747.8 850,685.7 832.6,668.3 		"/>
		<polygon class="st3" points="501.4,465.6 557.2,410.2 573.9,427 537.6,464.9 		"/>
		<polygon class="st3" points="470.3,327.1 486.7,344.3 550,279.5 517.1,279.5 		"/>
		
			<rect x="717.9" y="147.1" transform="matrix(0.7071 -0.7071 0.7071 0.7071 108.2409 578.6284)" class="st3" width="69.4" height="23.1"/>
		<polygon class="st3" points="203.9,222.6 160.9,265.6 177.6,282.2 203.8,255.9 		"/>
		<polygon class="st3" points="203.9,611.4 136.9,678.5 153.1,694.8 203.6,644.3 		"/>
		<polygon class="st3" points="186.5,896.1 225.6,857 260.3,857 204.2,913.1 		"/>
		<path d="M785.4,748.4l-39.3,39.3l-18.2-18.2l44.1-44.1l-68.3-111.8l-25.5,23.8l-14.8-22.7c0,0,14.6-9.6,21.7-16.6
			c7.1-7,16.5-13.5,30.8-31.6c14.3-18.1,17.8-25.3,26.2-40.4c8.3-15.1,16.3-27.8,22.4-52.8c6-25,7.7-31,8.6-47.7s0.6-17.6,0.6-17.6
			l24.5-22.8c0,0,5.3-59.3-11-99.1c-16.3-39.8-22.8-63-51.7-93.2l-52.6,52.6l-19.6-19.6l52-52c0,0-33.2-29.9-67.1-42.3
			c-34-12.3-50-19.4-73.5-21.1l23.8-23.8h-130l-20.6,20.6L202.6,107v112.2l56.7-56.6l18.4,18.4L202.7,256v95.5l22.1-22.1v132
			l-22.5,22.5v123.7l33.3-33.3l18.8,18.8l-51.9,51.9v209.7h22.2l62.5-62.5l18.3,18.3l-45.3,45.3h69.1L305,880.1h64.3v-65.8
			l24.5-24.5V634h99.8l21.8,36.8L489.4,694l48.8,83.3l24.3-22.9l26.4,43.8l36.3-35.9l18.3,19L600.9,822l19.9,32.2h214.3v-25.9
			L785.4,748.4z M607.7,402.8c-2.8,15.1-12,27.5-21.9,39.5c-9.9,12-34.9,21.8-34.9,21.8h-15.3l-64.8,64.8l-17.5-17.5l46.4-46.4
			H392.3V292.7l14.2-15.6h109.4l52.3-52.3l17.8,17.8l-35.7,35.7c17.3,2.9,24.1,12.5,38,24.5c13.9,12,17.3,28.1,21,43.8
			S610.5,387.7,607.7,402.8z"/>
	</g>
</g>
</svg>
